# xmcd
#
# Track frame offsets:
#	150
#	28525
#	60737
#	88760
#	123330
#	159965
#	187632
#	213462
#
# Disc length: 3169 seconds
#
# Revision: 1
# Processed by: cddbd v1.5.2PL0 Copyright (c) Steve Scherf et al.
# Submitted via: audiograbber 1.83.01
#
DISCID=5e0c5f08
DTITLE=Gerry Mulligan - Blues for Gerry
DYEAR=2002
DGENRE=Blues
TTITLE0=Apple Core
TTITLE1=Song For Johnny Hodges
TTITLE2=Blight Of The Fumble Bee
TTITLE3=Gerry Meets Hamp
TTITLE4=Blues For Gerry
TTITLE5=Line For Lyons
TTITLE6=Walkin' Shoes
TTITLE7=Limelight
EXTD=
EXTT0=
EXTT1=
EXTT2=
EXTT3=
EXTT4=
EXTT5=
EXTT6=
EXTT7=
PLAYORDER=
